<?xml version="1.0" standalone="no"?>
<!DOCTYPE svg PUBLIC "-//W3C//DTD SVG 20010904//EN"
 "http://www.w3.org/TR/2001/REC-SVG-20010904/DTD/svg10.dtd">
<svg version="1.0" xmlns="http://www.w3.org/2000/svg"
 width="192.000000pt" height="192.000000pt" viewBox="0 0 192.000000 192.000000"
 preserveAspectRatio="xMidYMid meet">

<g transform="translate(0.000000,192.000000) scale(0.100000,-0.100000)"
fill="#000000" stroke="none">
<path d="M0 960 l0 -960 960 0 960 0 0 960 0 960 -960 0 -960 0 0 -960z m890
-155 c23 -12 23 -14 7 -21 -10 -3 -30 -1 -45 5 -21 10 -23 14 -11 22 18 11 19
11 49 -6z m209 6 c11 -7 10 -11 -7 -20 -26 -14 -49 -14 -57 -1 -3 6 4 14 17
19 29 12 30 12 47 2z m-56 -243 c-2 -5 -33 -8 -68 -8 -35 0 -66 3 -68 8 -3 4
28 7 68 7 40 0 71 -3 68 -7z m-8 -28 c-3 -5 -30 -9 -58 -8 l-52 1 50 7 c28 4
54 8 58 8 5 1 5 -2 2 -8z"/>
</g>
</svg>
